<svg width="3586" height="1194" xmlns="http://www.w3.org/2000/svg" xmlns:xlink="http://www.w3.org/1999/xlink" xml:space="preserve" overflow="hidden"><defs><clipPath id="clip0"><rect x="382" y="1316" width="3586" height="1194"/></clipPath></defs><g clip-path="url(#clip0)" transform="translate(-382 -1316)"><path d="M1013.5 1429C1013.5 1377.36 1054.91 1335.5 1106 1335.5 1157.09 1335.5 1198.5 1377.36 1198.5 1429 1198.5 1480.64 1157.09 1522.5 1106 1522.5 1054.91 1522.5 1013.5 1480.64 1013.5 1429Z" stroke="#E7E6E6" stroke-width="38.9583" stroke-miterlimit="8" fill="none" fill-rule="evenodd"/><path d="M853.5 1859.5 1104.5 1744.5 1355.5 1859.5 1104.5 1974.5Z" stroke="#E7E6E6" stroke-width="38.9583" stroke-miterlimit="8" fill="none" fill-rule="evenodd"/><path d="M401.5 2092C401.5 2072.39 417.394 2056.5 437 2056.5L755 2056.5C774.606 2056.5 790.5 2072.39 790.5 2092L790.5 2234C790.5 2253.61 774.606 2269.5 755 2269.5L437 2269.5C417.394 2269.5 401.5 2253.61 401.5 2234Z" stroke="#E7E6E6" stroke-width="38.9583" stroke-miterlimit="8" fill="none" fill-rule="evenodd"/><path d="M1424.5 2093C1424.5 2073.39 1440.39 2057.5 1460 2057.5L1779 2057.5C1798.61 2057.5 1814.5 2073.39 1814.5 2093L1814.5 2235C1814.5 2254.61 1798.61 2270.5 1779 2270.5L1460 2270.5C1440.39 2270.5 1424.5 2254.61 1424.5 2235Z" stroke="#E7E6E6" stroke-width="38.9583" stroke-miterlimit="8" fill="none" fill-rule="evenodd"/><path d="M1600.5 1849.83C1600.5 1846.34 1603.34 1843.5 1606.83 1843.5L1632.17 1843.5C1635.66 1843.5 1638.5 1846.34 1638.5 1849.83L1638.5 2066.17C1638.5 2069.66 1635.66 2072.5 1632.17 2072.5L1606.83 2072.5C1603.34 2072.5 1600.5 2069.66 1600.5 2066.17Z" stroke="#E7E6E6" stroke-width="4.58333" stroke-miterlimit="8" fill="#E7E6E6" fill-rule="evenodd"/><path d="M1346 1882.5C1342.41 1882.5 1339.5 1879.59 1339.5 1876L1339.5 1850C1339.5 1846.41 1342.41 1843.5 1346 1843.5L1632 1843.5C1635.59 1843.5 1638.5 1846.41 1638.5 1850L1638.5 1876C1638.5 1879.59 1635.59 1882.5 1632 1882.5Z" stroke="#E7E6E6" stroke-width="4.58333" stroke-miterlimit="8" fill="#E7E6E6" fill-rule="evenodd"/><path d="M1084.5 1529C1084.5 1525.41 1087.41 1522.5 1091 1522.5L1117 1522.5C1120.59 1522.5 1123.5 1525.41 1123.5 1529L1123.5 1745C1123.5 1748.59 1120.59 1751.5 1117 1751.5L1091 1751.5C1087.41 1751.5 1084.5 1748.59 1084.5 1745Z" stroke="#E7E6E6" stroke-width="4.58333" stroke-miterlimit="8" fill="#E7E6E6" fill-rule="evenodd"/><path d="M583.833 1879.5C580.335 1879.5 577.5 1876.66 577.5 1873.17L577.5 1847.83C577.5 1844.34 580.335 1841.5 583.833 1841.5L870.166 1841.5C873.664 1841.5 876.5 1844.34 876.5 1847.83L876.5 1873.17C876.5 1876.66 873.664 1879.5 870.166 1879.5Z" stroke="#E7E6E6" stroke-width="4.58333" stroke-miterlimit="8" fill="#E7E6E6" fill-rule="evenodd"/><path d="M576.5 1850C576.5 1846.41 579.41 1843.5 583 1843.5L609 1843.5C612.589 1843.5 615.5 1846.41 615.5 1850L615.5 2066C615.5 2069.59 612.589 2072.5 609 2072.5L583 2072.5C579.41 2072.5 576.5 2069.59 576.5 2066Z" stroke="#E7E6E6" stroke-width="4.58333" stroke-miterlimit="8" fill="#E7E6E6" fill-rule="evenodd"/><text fill="#E7E6E6" font-family="Eras Demi ITC,Eras Demi ITC_MSFontService,sans-serif" font-weight="600" font-size="527" transform="matrix(1 0 0 1 1813.78 2060)">Transl8</text></g></svg>