<?xml version="1.0" standalone="no"?>
<!DOCTYPE svg PUBLIC "-//W3C//DTD SVG 20010904//EN"
 "http://www.w3.org/TR/2001/REC-SVG-20010904/DTD/svg10.dtd">
<svg version="1.0" xmlns="http://www.w3.org/2000/svg"
 width="1452.000000pt" height="974.000000pt" viewBox="0 0 1452.000000 974.000000"
 preserveAspectRatio="xMidYMid meet">

<g transform="translate(0.000000,974.000000) scale(0.100000,-0.100000)"
fill="#000000" stroke="none">
<path d="M7125 9730 c-452 -46 -841 -379 -960 -821 -120 -450 43 -930 410
-1202 116 -86 286 -167 403 -192 l32 -7 -2 -971 -3 -971 -1140 -523 -1140
-523 -1348 0 c-1127 0 -1353 -2 -1381 -14 -23 -10 -40 -27 -55 -58 l-21 -44 0
-937 0 -936 -732 -3 c-674 -3 -737 -5 -788 -22 -185 -61 -320 -198 -377 -381
-17 -56 -18 -112 -18 -855 0 -743 1 -799 18 -855 57 -186 196 -325 382 -382
57 -17 137 -18 1735 -18 1598 0 1678 1 1735 18 186 57 325 196 382 382 17 56
18 112 18 855 0 743 -1 799 -18 855 -57 183 -192 320 -377 381 -51 17 -114 19
-787 22 l-733 3 0 775 0 774 1193 0 1192 0 1235 -566 c679 -312 1240 -567
1245 -567 6 0 556 251 1223 557 l1214 556 1249 0 1249 0 0 -769 0 -770 -737
-3 c-679 -3 -742 -5 -793 -22 -185 -61 -320 -198 -377 -381 -17 -56 -18 -112
-18 -855 0 -743 1 -799 18 -855 57 -186 196 -325 382 -382 57 -17 138 -18
1740 -18 1602 0 1683 1 1740 18 186 57 325 196 382 382 17 56 18 112 18 855 0
743 -1 799 -18 855 -57 183 -192 320 -377 381 -51 17 -114 19 -792 22 l-738 3
-2 959 -3 959 -23 23 -23 23 -1373 3 -1374 2 -1174 538 -1173 538 -3 966 -2
967 42 11 c415 104 726 404 833 801 120 450 -43 930 -410 1202 -225 167 -504
245 -780 217z m315 -405 c244 -75 424 -257 502 -505 19 -63 23 -96 23 -210 0
-114 -4 -147 -23 -210 -79 -250 -259 -431 -507 -507 -85 -25 -305 -25 -390 0
-246 76 -428 256 -505 502 -30 95 -38 264 -17 362 32 148 96 269 197 372 103
106 225 175 365 207 80 18 280 12 355 -11z m812 -4552 c634 -290 1014 -469
1006 -474 -21 -12 -1959 -900 -2000 -916 l-36 -15 -1021 467 c-562 258 -1020
470 -1018 471 7 7 2032 934 2041 934 5 0 467 -210 1028 -467z m-4441 -2656
c18 -12 44 -38 56 -56 l23 -34 0 -757 0 -757 -23 -34 c-12 -18 -38 -44 -56
-56 l-34 -23 -1637 0 -1637 0 -34 23 c-18 12 -44 38 -56 56 l-23 34 0 757 0
757 23 34 c12 18 38 44 56 56 l34 23 1637 0 1637 0 34 -23z m10240 -10 c18
-12 44 -38 56 -56 l23 -34 0 -757 0 -757 -23 -34 c-12 -18 -38 -44 -56 -56
l-34 -23 -1642 0 -1642 0 -34 23 c-18 12 -44 38 -56 56 l-23 34 0 757 0 757
23 34 c12 18 38 44 56 56 l34 23 1642 0 1642 0 34 -23z"/>
</g>
</svg>
